<svg width="70" height="44" viewBox="0 0 70 44" fill="none" xmlns="http://www.w3.org/2000/svg">
<g clip-path="url(#clip0_28_53)">
<path opacity="0.07" d="M64.4737 0H5.52632C2.39474 0 0 2.38333 0 5.5V38.5C0 41.6167 2.57895 44 5.52632 44H64.4737C67.6053 44 70 41.6167 70 38.5V5.5C70 2.38333 67.4211 0 64.4737 0Z" fill="black"/>
<path d="M64.4737 1.83334C66.5 1.83334 68.1579 3.48334 68.1579 5.50001V38.5C68.1579 40.5167 66.5 42.1667 64.4737 42.1667H5.52631C3.5 42.1667 1.8421 40.5167 1.8421 38.5V5.50001C1.8421 3.48334 3.5 1.83334 5.52631 1.83334H64.4737Z" fill="#006FCF"/>
<path d="M40.5484 36.5493V21.1108L68.1579 21.1347V25.399L64.9674 28.7943L68.1579 32.2172V36.5713H63.0626L60.3547 33.5977L57.6652 36.5823L40.5484 36.5457V36.5493Z" fill="white"/>
<path d="M42.3924 34.8553V22.8103H52.6566V25.5842H45.7156V27.4688H52.4908V30.1968H45.7156V32.0485H52.6566V34.8553H42.3924Z" fill="#006FCF"/>
<path d="M52.605 34.8553L58.2842 28.8255L52.605 22.8085H57.0002L60.4708 26.6273L63.9523 22.8103H68.1579V22.9038L62.6002 28.8255L68.1579 34.6867V34.8572H63.9081L60.3768 31.0017L56.8805 34.859H52.605V34.8553Z" fill="#006FCF"/>
<path d="M41.8342 7.40668H48.4916L50.8292 12.6885V7.40668H59.045L60.4634 11.3648L61.8837 7.40668H68.1579V22.8452H35L41.8342 7.40668Z" fill="white"/>
<path d="M43.0961 9.08417L37.7245 21.1218H41.4087L42.4219 18.711H47.9113L48.9245 21.1218H52.7008L47.3513 9.08417H43.0961ZM43.5566 16.0087L45.1684 12.177L46.7766 16.0087H43.5566Z" fill="#006FCF"/>
<path d="M52.6492 21.12V9.08051L57.8274 9.09884L60.4948 16.5L63.1769 9.08234H68.1579V21.1182L64.9527 21.1475V12.8792L61.9242 21.1182H58.9953L55.9079 12.8517V21.12H52.6511H52.6492Z" fill="#006FCF"/>
</g>
<defs>
<clipPath id="clip0_28_53">
<rect width="70" height="44" fill="white"/>
</clipPath>
</defs>
</svg>
