<svg width="50" height="54" viewBox="0 0 50 54" fill="none" xmlns="http://www.w3.org/2000/svg">
<path d="M19.1564 0H47.5017C48.8813 0 50 1.11883 50 2.49897C50 3.7641 49.06 4.80967 47.8407 4.97514L47.5017 4.99794L36.8433 4.99667L20.11 48.3334H34.1527C35.4173 48.3334 36.4627 49.2744 36.628 50.4944L36.651 50.8334C36.651 52.0984 35.711 53.145 34.4917 53.3107L34.1527 53.3334H2.4882C1.10837 53.3334 0 52.2134 0 50.8334C0 49.5684 0.931333 48.5217 2.14937 48.356L2.4882 48.3334H14.77L14.8408 48.1164L31.4867 4.99667L19.1564 4.99794C17.8916 4.99794 16.8449 4.05784 16.6793 2.83807L16.6564 2.49897C16.6564 1.23383 17.5977 0.188301 18.8174 0.0228008L19.1564 0Z" fill="black"/>
</svg>
